<?xml version="1.0" encoding="UTF-8"?> <svg xmlns="http://www.w3.org/2000/svg" xmlns:xlink="http://www.w3.org/1999/xlink" width="340px" height="43px" viewBox="0 0 340 43" version="1.1"><title>Bitly-Egoditor</title><defs><polygon id="path-1" points="0 0 86 0 86 43 0 43"></polygon><polygon id="path-3" points="0 0 86 0 86 43 0 43"></polygon><polygon id="path-5" points="0 0 86 0 86 43 0 43"></polygon><polygon id="path-7" points="0 0 86 0 86 43 0 43"></polygon></defs><g id="Egoditor-Banner" stroke="none" stroke-width="1" fill="none" fill-rule="evenodd"><g id="Bitly-Egoditor"><g id="bitly_logotype"><path d="M44.7697245,29.0288644 C40.4559616,29.0288644 38.0757691,26.4731584 38.0757691,23.2879321 C38.0757691,21.9916966 38.1357631,12.3616278 38.1357631,12.3616278 C36.7251512,12.3616278 36.0303819,11.6207375 36.0303819,10.6949471 C36.0303819,9.76894176 36.7657923,8.91238142 37.9729836,8.91238142 C37.9729836,8.91238142 37.975349,5.69254014 37.975349,4.3591096 C37.975349,2.840349 39.1541561,1.5810935 40.6789501,1.5810935 C42.2039591,1.5810935 43.414806,2.840349 43.414806,4.3591096 C43.414806,5.50721006 43.314816,7.09025569 43.3189016,8.84422639 C43.4455556,8.84272139 44.5346942,8.84272139 46.1334594,8.82401638 C47.6163221,8.80660138 48.2203478,9.63478171 48.2203478,10.6717271 C48.2203478,11.7086725 47.4219329,12.4323628 46.3809615,12.4366628 C45.4161116,12.4405328 43.2849265,12.4287078 43.2849265,12.4287078 C43.1879469,15.499769 43.0963432,19.2022855 43.0963432,22.1652017 C43.0963432,23.2337521 43.833904,24.4549526 45.6191021,24.4549526 C49.7096615,24.4549526 50.8888986,20.326091 50.8888986,12.5467429 C50.8888986,11.5097975 51.7075266,10.6949471 52.7491431,10.6949471 C53.7901144,10.6949471 54.6083123,11.5097975 54.6083123,12.5467429 C54.6083123,22.7323719 52.0216888,29.0288644 44.7697245,29.0288644" id="Fill-1" fill="#FFFFFF" fill-rule="nonzero"></path><g id="Group-7"><g id="Fill-2-Clipped"><mask id="mask-2" fill="white"><use xlink:href="#path-1"></use></mask><g id="path-1"></g><path d="M62.2355079,12.7275579 C62.2389484,12.7215379 63.9772695,11.5364575 65.0184559,11.5364575 C66.0598574,11.5364575 65.9078295,11.7183475 65.9078295,12.7552929 C65.9078295,23.8669274 63.8964174,29.0531594 56.703157,29.0531594 C53.5770174,29.0531594 50.6588141,26.7195485 50.6588141,23.8675724 C50.6588141,22.7564519 50.8450321,20.534211 50.8450321,19.4230906 C50.8450321,8.68190133 50.678382,6.41171542 50.678382,3.26346917 C50.678382,1.74492356 51.942987,0.387413022 53.467566,0.387413022 C54.9927901,0.387413022 56.117624,1.60624851 56.117624,3.12479411 C56.117624,6.27304037 55.7774429,10.8525422 55.6793882,22.7104419 C55.671217,23.7024523 56.1554697,24.4012026 57.4407177,24.4012026 C61.457091,24.4012026 62.0781043,19.3132256 62.2355079,12.7275579" id="Fill-2" fill="#FFFFFF" fill-rule="nonzero" mask="url(#mask-2)"></path></g><g id="Fill-4-Clipped"><mask id="mask-4" fill="white"><use xlink:href="#path-3"></use></mask><g id="path-1"></g><path d="M75.9334954,33.2258811 C72.5030851,33.9661264 68.2056647,35.0471468 68.2555522,37.1593077 C68.3024292,39.1398885 70.3478164,39.5002286 72.0528075,39.1480585 C75.5941744,38.4161982 76.0055312,36.2855473 75.9334954,33.2258811 Z M75.2720561,27.1413787 C75.2720561,27.1413787 73.760594,29.1230345 69.9304387,29.0273594 C64.8509458,28.9002944 62.4969872,24.8686128 62.2477648,20.7212611 C62.0589664,17.5786049 62.1443342,15.356579 62.1443342,13.3196682 C62.1443342,11.8011226 63.1560612,10.5719671 64.6812853,10.5719671 C66.2060793,10.5719671 67.102549,11.8312226 67.102549,13.3497682 C67.102549,15.386679 66.9774002,17.1754797 66.9552518,19.3975056 C66.9285878,22.0783417 67.8446254,24.4399026 70.0760156,24.4334526 C72.2181673,24.4272176 74.5708357,23.5255072 74.6280343,18.9337504 C74.6557735,16.7117245 74.5800821,15.386679 74.5800821,13.3497682 C74.5800821,11.8312226 75.6384711,10.5719671 77.1636952,10.5719671 C78.6878441,10.5719671 79.7473082,11.8312226 79.7473082,13.3497682 C79.7473082,15.386679 79.5806582,17.4050998 79.5806582,20.5533461 C79.5806582,20.5533461 79.4871192,26.9130486 79.7105377,28.3206542 C80.4100378,28.0878091 81.4193994,27.4041088 82.48854,25.7471031 C83.1340669,24.7467077 84.3681373,24.5323526 85.1287065,24.9752528 C86.1756988,25.5852081 86.1382832,26.7771685 85.7469244,27.6479189 C84.7362726,29.8957448 83.4222102,31.2715303 80.0995311,32.4101708 C80.1098527,36.2229823 79.8442878,41.8480295 72.7940238,42.8647649 C66.7561319,43.7353003 64.0250067,40.2342389 64.0159754,37.2551977 C64.0015682,32.5512108 68.7032494,31.1812303 75.4896687,29.4726246 L75.2720561,27.1413787 L75.2720561,27.1413787 Z" id="Fill-4" fill="#FFFFFF" fill-rule="nonzero" mask="url(#mask-4)"></path></g><g id="Fill-5-Clipped"><mask id="mask-6" fill="white"><use xlink:href="#path-5"></use></mask><g id="path-1"></g><path d="M27.0224638,23.8692924 C27.0224638,22.5730569 26.8779621,12.1481327 26.8779621,12.1481327 C26.8779621,10.6295871 27.8576493,9.34345659 29.3824433,9.34345659 C30.9072373,9.34345659 31.9200395,10.7168771 31.8658513,12.1666227 C31.6828588,17.0488447 31.6088877,20.2624509 31.6088877,21.9626716 C31.6088877,22.946942 32.1458234,24.4549526 33.7353421,24.4549526 C37.4147598,24.4549526 38.1740388,21.0463413 38.1740388,12.816998 C38.1740388,11.7798376 39.2098494,10.9652022 40.2510358,10.9652022 C41.2922222,10.9652022 42.1104201,11.7798376 42.1104201,12.816998 C42.1104201,25.2685129 39.9437547,29.0432694 32.8997266,29.0432694 C30.0359265,29.0432694 27.0224638,27.2392037 27.0224638,23.8692924" id="Fill-5" fill="#FFFFFF" fill-rule="nonzero" mask="url(#mask-6)"></path></g><g id="Fill-6-Clipped"><mask id="mask-8" fill="white"><use xlink:href="#path-7"></use></mask><g id="path-1"></g><path d="M12.6888409,24.3726076 C10.3342372,24.4138876 8.83245166,23.4840122 8.72751589,21.4344164 C8.68816498,20.6651461 8.70063686,20.0063858 8.73805248,19.5125306 C8.96598671,16.5171494 10.8533252,14.5772037 12.9286019,14.1635435 C15.5102797,13.6490483 17.230108,14.8248838 17.230108,18.1913551 C17.230108,20.466271 16.5959778,24.3044526 12.6888409,24.3726076 Z M28.6831583,10.296982 C27.6731516,10.296982 27.6075667,10.5061771 26.9381712,11.5543025 C26.9381712,16.1540143 26.4646701,21.1714713 20.5508518,23.8985324 C24.5192729,16.6938795 20.6572928,9.16371652 14.573814,9.16371652 C11.6521702,9.16371652 9.90309747,10.2041019 8.71246363,11.1741823 C8.71246363,8.94699643 8.78729487,4.99185486 8.78729487,4.99185486 C8.78729487,2.24630376 7.82179985,0.0485728872 4.45632935,0.00062786807 C2.50856679,-0.027107143 1.06311968,0.862993212 0.161489256,2.87474901 C-0.163424547,3.62918431 -0.0436515566,4.44897964 0.598434886,4.82028479 C1.1297797,5.12751991 2.00345592,4.89983482 2.43610091,4.32513959 C2.72467425,3.96587445 2.88680861,3.88911942 3.1377513,3.91599443 C3.55125841,3.96028445 3.56695577,4.62398971 3.58329822,5.04839988 C3.59598513,5.37412501 3.91358783,9.25745656 3.73984173,21.4200114 C3.73984173,24.7718627 6.37635274,29.0748745 12.6888409,29.0748745 C24.2457518,29.0748745 31.1753826,23.6102173 31.1753826,11.6843775 C31.1753826,10.6783921 29.69338,10.296982 28.6831583,10.296982 L28.6831583,10.296982 Z" id="Fill-6" fill="#FFFFFF" fill-rule="nonzero" mask="url(#mask-8)"></path></g></g><path d="M29.3785727,1.5944235 C30.9177739,1.5944235 32.1625959,2.833899 32.1625959,4.36706461 C32.1625959,5.90001522 30.9177739,7.13970571 29.3785727,7.13970571 C27.8391565,7.13970571 26.5945496,5.90001522 26.5945496,4.36706461 C26.5945496,2.833899 27.8391565,1.5944235 29.3785727,1.5944235" id="Fill-8" fill="#FFFFFF" fill-rule="nonzero"></path></g><g id="logo-icon-blue" transform="translate(128.000000, 7.000000)" fill="#FFFFFF" fill-rule="nonzero"><g id="Group"><path d="M6.8,15 L6.8,9 C6.8,7.8 7.8,6.8 9,6.8 L15,6.8 C16.2,6.8 17.2,7.8 17.2,9 L17.2,17.2 L17.2,17.2 L9,17.2 C7.8,17.2 6.8,16.2 6.8,15 C6.8,15 6.8,15 6.8,15 Z" id="Path"></path><path d="M16.5,3.4 C18.8,3.4 20.6,5.2 20.6,7.5 L20.6,20.5 L7.6,20.5 C5.3,20.5 3.5,18.7 3.5,16.4 L3.5,7.5 C3.5,5.2 5.3,3.4 7.6,3.4 L16.5,3.4 M16.5,0 L7.5,0 C3.4,0 0,3.4 0,7.5 L0,16.4 C0,20.6 3.4,24 7.5,24 L24,24 L24,7.5 C24,3.4 20.6,0 16.5,0 L16.5,0 Z" id="Shape"></path><g id="QR-Code-Generator" transform="translate(32.012000, 2.992000)"><path d="M6.946,13.064 C7.85066667,13.064 8.55983333,12.6653333 9.0735,11.868 C9.58716667,11.0706667 9.844,9.936 9.844,8.464 C9.844,7.09933333 9.58716667,6.04516667 9.0735,5.3015 C8.55983333,4.55783333 7.85066667,4.186 6.946,4.186 C6.05666667,4.186 5.35133333,4.55783333 4.83,5.3015 C4.30866667,6.04516667 4.048,7.09933333 4.048,8.464 C4.048,9.936 4.30866667,11.0706667 4.83,11.868 C5.35133333,12.6653333 6.05666667,13.064 6.946,13.064 Z M12.006,20.332 C10.3346667,20.332 8.92016667,19.9333333 7.7625,19.136 C6.60483333,18.3386667 5.73466667,17.319 5.152,16.077 C3.588,15.7243333 2.33833333,14.8886667 1.403,13.57 C0.467666667,12.2513333 0,10.5493333 0,8.464 C0,6.82333333 0.291333333,5.43183333 0.874,4.2895 C1.45666667,3.14716667 2.26933333,2.277 3.312,1.679 C4.35466667,1.081 5.566,0.782 6.946,0.782 C8.326,0.782 9.53733333,1.081 10.58,1.679 C11.6226667,2.277 12.4353333,3.14716667 13.018,4.2895 C13.6006667,5.43183333 13.892,6.82333333 13.892,8.464 C13.892,10.4113333 13.4818333,12.0251667 12.6615,13.3055 C11.8411667,14.5858333 10.7256667,15.456 9.315,15.916 C9.66766667,16.3913333 10.1391667,16.7248333 10.7295,16.9165 C11.3198333,17.1081667 11.8986667,17.204 12.466,17.204 C12.788,17.204 13.0946667,17.1771667 13.386,17.1235 C13.6773333,17.0698333 13.938,17.0046667 14.168,16.928 L14.858,19.78 C14.5666667,19.9333333 14.1756667,20.0636667 13.685,20.171 C13.1943333,20.2783333 12.6346667,20.332 12.006,20.332 Z" id="Q"></path><path d="M15.493333,16.008 L15.493333,1.058 L21.151333,1.058 C22.2246663,1.058 23.2136663,1.19983333 24.118333,1.4835 C25.0229997,1.76716667 25.751333,2.26166667 26.303333,2.967 C26.855333,3.67233333 27.131333,4.646 27.131333,5.888 C27.131333,6.96133333 26.9089997,7.85066667 26.464333,8.556 C26.0196663,9.26133333 25.4369997,9.81333333 24.716333,10.212 L27.959333,16.008 L23.543333,16.008 L20.967333,10.994 L19.449333,10.994 L19.449333,16.008 L15.493333,16.008 Z M19.449333,7.866 L20.875333,7.866 C22.4699997,7.866 23.267333,7.20666667 23.267333,5.888 C23.267333,5.244 23.0641663,4.79933333 22.657833,4.554 C22.2514997,4.30866667 21.657333,4.186 20.875333,4.186 L19.449333,4.186 L19.449333,7.866 Z" id="R"></path><path d="M38.935999,16.284 C37.6633323,16.284 36.486499,16.0041667 35.405499,15.4445 C34.324499,14.8848333 33.4543323,14.0376667 32.794999,12.903 C32.1356657,11.7683333 31.805999,10.35 31.805999,8.648 C31.805999,7.39066667 32.001499,6.27516667 32.392499,5.3015 C32.783499,4.32783333 33.3201657,3.50366667 34.002499,2.829 C34.6848323,2.15433333 35.4591657,1.6445 36.325499,1.2995 C37.1918323,0.9545 38.0926657,0.782 39.027999,0.782 C40.0246657,0.782 40.9178323,0.9775 41.707499,1.3685 C42.4971657,1.7595 43.1526657,2.22333333 43.673999,2.76 L41.603999,5.29 C41.235999,4.968 40.856499,4.7035 40.465499,4.4965 C40.074499,4.2895 39.625999,4.186 39.119999,4.186 C38.5373323,4.186 37.9968323,4.3585 37.498499,4.7035 C37.0001657,5.0485 36.601499,5.543 36.302499,6.187 C36.003499,6.831 35.853999,7.60533333 35.853999,8.51 C35.853999,9.90533333 36.1491657,10.9825 36.739499,11.7415 C37.3298323,12.5005 38.107999,12.88 39.073999,12.88 C39.6566657,12.88 40.1741657,12.7496667 40.626499,12.489 C41.0788323,12.2283333 41.465999,11.9293333 41.787999,11.592 L43.857999,14.076 C43.2293323,14.812 42.4933323,15.364 41.649999,15.732 C40.8066657,16.1 39.901999,16.284 38.935999,16.284 Z" id="C"></path><path d="M49.645332,16.284 C48.6639987,16.284 47.7401653,16.0463333 46.873832,15.571 C46.0074987,15.0956667 45.3021653,14.4095 44.757832,13.5125 C44.2134987,12.6155 43.941332,11.5306667 43.941332,10.258 C43.941332,8.98533333 44.2134987,7.9005 44.757832,7.0035 C45.3021653,6.1065 46.0074987,5.42033333 46.873832,4.945 C47.7401653,4.46966667 48.6639987,4.232 49.645332,4.232 C50.6266653,4.232 51.5504987,4.46966667 52.416832,4.945 C53.2831653,5.42033333 53.9884987,6.1065 54.532832,7.0035 C55.0771653,7.9005 55.349332,8.98533333 55.349332,10.258 C55.349332,11.5306667 55.0771653,12.6155 54.532832,13.5125 C53.9884987,14.4095 53.2831653,15.0956667 52.416832,15.571 C51.5504987,16.0463333 50.6266653,16.284 49.645332,16.284 Z M49.645332,13.11 C50.243332,13.11 50.668832,12.8531667 50.921832,12.3395 C51.174832,11.8258333 51.301332,11.132 51.301332,10.258 C51.301332,9.384 51.174832,8.69016667 50.921832,8.1765 C50.668832,7.66283333 50.243332,7.406 49.645332,7.406 C49.047332,7.406 48.621832,7.66283333 48.368832,8.1765 C48.115832,8.69016667 47.989332,9.384 47.989332,10.258 C47.989332,11.132 48.115832,11.8258333 48.368832,12.3395 C48.621832,12.8531667 49.047332,13.11 49.645332,13.11 Z" id="o"></path><path d="M60.538665,16.284 C59.112665,16.284 57.974165,15.7435 57.123165,14.6625 C56.272165,13.5815 55.846665,12.1133333 55.846665,10.258 C55.846665,9.00066667 56.0728317,7.9235 56.525165,7.0265 C56.9774983,6.1295 57.5639983,5.4395 58.284665,4.9565 C59.0053317,4.4735 59.756665,4.232 60.538665,4.232 C61.1673317,4.232 61.6848317,4.3355 62.091165,4.5425 C62.4974983,4.7495 62.8693317,5.02933333 63.206665,5.382 L63.068665,3.726 L63.068665,0 L67.024665,0 L67.024665,16.008 L63.804665,16.008 L63.528665,14.95 L63.436665,14.95 C63.0533317,15.3333333 62.6009983,15.6515 62.079665,15.9045 C61.5583317,16.1575 61.044665,16.284 60.538665,16.284 Z M61.596665,13.064 C61.9033317,13.064 62.1754983,13.0065 62.413165,12.8915 C62.6508317,12.7765 62.8693317,12.558 63.068665,12.236 L63.068665,8.004 C62.838665,7.78933333 62.585665,7.64366667 62.309665,7.567 C62.033665,7.49033333 61.7653317,7.452 61.504665,7.452 C61.090665,7.452 60.7188317,7.659 60.389165,8.073 C60.0594983,8.487 59.894665,9.2 59.894665,10.212 C59.894665,11.2393333 60.0479983,11.9715 60.354665,12.4085 C60.6613317,12.8455 61.0753317,13.064 61.596665,13.064 Z" id="d"></path><path d="M73.961998,16.284 C72.8426647,16.284 71.834498,16.0463333 70.937498,15.571 C70.040498,15.0956667 69.3313313,14.4095 68.809998,13.5125 C68.2886647,12.6155 68.027998,11.5306667 68.027998,10.258 C68.027998,9.016 68.292498,7.9465 68.821498,7.0495 C69.350498,6.1525 70.0366647,5.45866667 70.879998,4.968 C71.7233313,4.47733333 72.6126647,4.232 73.547998,4.232 C74.6826647,4.232 75.6218313,4.48116667 76.365498,4.9795 C77.1091647,5.47783333 77.6611647,6.14866667 78.021498,6.992 C78.3818313,7.83533333 78.561998,8.77066667 78.561998,9.798 C78.561998,10.1353333 78.5428313,10.4611667 78.504498,10.7755 C78.4661647,11.0898333 78.4316647,11.316 78.400998,11.454 L71.845998,11.454 C72.029998,12.144 72.3596647,12.6231667 72.834998,12.8915 C73.3103313,13.1598333 73.869998,13.294 74.513998,13.294 C75.249998,13.294 76.031998,13.064 76.859998,12.604 L78.147998,14.95 C77.5346647,15.3793333 76.8446647,15.709 76.077998,15.939 C75.3113313,16.169 74.605998,16.284 73.961998,16.284 Z M71.799998,8.878 L75.203998,8.878 C75.203998,8.43333333 75.0928313,8.04616667 74.870498,7.7165 C74.6481647,7.38683333 74.237998,7.222 73.639998,7.222 C73.2106647,7.222 72.8273313,7.35233333 72.489998,7.613 C72.1526647,7.87366667 71.9226647,8.29533333 71.799998,8.878 Z" id="e"></path><path d="M90.412664,16.284 C89.0173307,16.284 87.7484973,16.0041667 86.606164,15.4445 C85.4638307,14.8848333 84.5553307,14.0376667 83.880664,12.903 C83.2059973,11.7683333 82.868664,10.35 82.868664,8.648 C82.868664,7.39066667 83.0679973,6.27516667 83.466664,5.3015 C83.8653307,4.32783333 84.409664,3.50366667 85.099664,2.829 C85.789664,2.15433333 86.583164,1.6445 87.480164,1.2995 C88.377164,0.9545 89.3239973,0.782 90.320664,0.782 C91.424664,0.782 92.3829973,0.9775 93.195664,1.3685 C94.0083307,1.7595 94.6753307,2.22333333 95.196664,2.76 L93.126664,5.29 C92.758664,4.968 92.3714973,4.7035 91.965164,4.4965 C91.5588307,4.2895 91.056664,4.186 90.458664,4.186 C89.446664,4.186 88.6033307,4.5655 87.928664,5.3245 C87.2539973,6.0835 86.916664,7.14533333 86.916664,8.51 C86.916664,9.90533333 87.2348307,10.9825 87.871164,11.7415 C88.5074973,12.5005 89.492664,12.88 90.826664,12.88 C91.0413307,12.88 91.252164,12.857 91.459164,12.811 C91.666164,12.765 91.838664,12.696 91.976664,12.604 L91.976664,10.534 L89.768664,10.534 L89.768664,7.314 L95.472664,7.314 L95.472664,14.444 C94.9513307,14.95 94.242164,15.3831667 93.345164,15.7435 C92.448164,16.1038333 91.470664,16.284 90.412664,16.284 Z" id="G"></path><path d="M102.317997,16.284 C101.198664,16.284 100.190497,16.0463333 99.293497,15.571 C98.396497,15.0956667 97.6873303,14.4095 97.165997,13.5125 C96.6446637,12.6155 96.383997,11.5306667 96.383997,10.258 C96.383997,9.016 96.648497,7.9465 97.177497,7.0495 C97.706497,6.1525 98.3926637,5.45866667 99.235997,4.968 C100.07933,4.47733333 100.968664,4.232 101.903997,4.232 C103.038664,4.232 103.97783,4.48116667 104.721497,4.9795 C105.465164,5.47783333 106.017164,6.14866667 106.377497,6.992 C106.73783,7.83533333 106.917997,8.77066667 106.917997,9.798 C106.917997,10.1353333 106.89883,10.4611667 106.860497,10.7755 C106.822164,11.0898333 106.787664,11.316 106.756997,11.454 L100.201997,11.454 C100.385997,12.144 100.715664,12.6231667 101.190997,12.8915 C101.66633,13.1598333 102.225997,13.294 102.869997,13.294 C103.605997,13.294 104.387997,13.064 105.215997,12.604 L106.503997,14.95 C105.890664,15.3793333 105.200664,15.709 104.433997,15.939 C103.66733,16.169 102.961997,16.284 102.317997,16.284 Z M100.155997,8.878 L103.559997,8.878 C103.559997,8.43333333 103.44883,8.04616667 103.226497,7.7165 C103.004164,7.38683333 102.593997,7.222 101.995997,7.222 C101.566664,7.222 101.18333,7.35233333 100.845997,7.613 C100.508664,7.87366667 100.278664,8.29533333 100.155997,8.878 Z" id="e"></path><path d="M108.01333,16.008 L108.01333,4.508 L111.23333,4.508 L111.50933,5.888 L111.60133,5.888 C112.06133,5.44333333 112.586497,5.05616667 113.17683,4.7265 C113.767163,4.39683333 114.45333,4.232 115.23533,4.232 C116.507997,4.232 117.424163,4.6575 117.98383,5.5085 C118.543497,6.3595 118.82333,7.498 118.82333,8.924 L118.82333,16.008 L114.86733,16.008 L114.86733,9.43 C114.86733,8.694 114.77533,8.20333333 114.59133,7.958 C114.40733,7.71266667 114.115997,7.59 113.71733,7.59 C113.34933,7.59 113.042663,7.66666667 112.79733,7.82 C112.551997,7.97333333 112.275997,8.188 111.96933,8.464 L111.96933,16.008 L108.01333,16.008 Z" id="n"></path><path d="M125.668663,16.284 C124.54933,16.284 123.541163,16.0463333 122.644163,15.571 C121.747163,15.0956667 121.037996,14.4095 120.516663,13.5125 C119.99533,12.6155 119.734663,11.5306667 119.734663,10.258 C119.734663,9.016 119.999163,7.9465 120.528163,7.0495 C121.057163,6.1525 121.74333,5.45866667 122.586663,4.968 C123.429996,4.47733333 124.31933,4.232 125.254663,4.232 C126.38933,4.232 127.328496,4.48116667 128.072163,4.9795 C128.81583,5.47783333 129.36783,6.14866667 129.728163,6.992 C130.088496,7.83533333 130.268663,8.77066667 130.268663,9.798 C130.268663,10.1353333 130.249496,10.4611667 130.211163,10.7755 C130.17283,11.0898333 130.13833,11.316 130.107663,11.454 L123.552663,11.454 C123.736663,12.144 124.06633,12.6231667 124.541663,12.8915 C125.016996,13.1598333 125.576663,13.294 126.220663,13.294 C126.956663,13.294 127.738663,13.064 128.566663,12.604 L129.854663,14.95 C129.24133,15.3793333 128.55133,15.709 127.784663,15.939 C127.017996,16.169 126.312663,16.284 125.668663,16.284 Z M123.506663,8.878 L126.910663,8.878 C126.910663,8.43333333 126.799496,8.04616667 126.577163,7.7165 C126.35483,7.38683333 125.944663,7.222 125.346663,7.222 C124.91733,7.222 124.533996,7.35233333 124.196663,7.613 C123.85933,7.87366667 123.62933,8.29533333 123.506663,8.878 Z" id="e"></path><path d="M131.363996,16.008 L131.363996,4.508 L134.583996,4.508 L134.859996,6.486 L134.951996,6.486 C135.381329,5.704 135.891163,5.13283333 136.481496,4.7725 C137.071829,4.41216667 137.650663,4.232 138.217996,4.232 C138.570663,4.232 138.858163,4.25116667 139.080496,4.2895 C139.302829,4.32783333 139.490663,4.38533333 139.643996,4.462 L138.999996,7.866 C138.800663,7.82 138.601329,7.77783333 138.401996,7.7395 C138.202663,7.70116667 137.972663,7.682 137.711996,7.682 C137.297996,7.682 136.864829,7.82383333 136.412496,8.1075 C135.960163,8.39116667 135.595996,8.89333333 135.319996,9.614 L135.319996,16.008 L131.363996,16.008 Z" id="r"></path><path d="M142.211329,16.284 C141.490662,16.284 140.873496,16.1191667 140.359829,15.7895 C139.846162,15.4598333 139.451329,15.0266667 139.175329,14.49 C138.899329,13.9533333 138.761329,13.3706667 138.761329,12.742 C138.761329,11.546 139.251996,10.6068333 140.233329,9.9245 C141.214662,9.24216667 142.809329,8.786 145.017329,8.556 C144.925329,7.75866667 144.388662,7.36 143.407329,7.36 C142.993329,7.36 142.556329,7.4405 142.096329,7.6015 C141.636329,7.7625 141.107329,8.004 140.509329,8.326 L139.129329,5.75 C139.941996,5.25933333 140.766162,4.88366667 141.601829,4.623 C142.437496,4.36233333 143.299996,4.232 144.189329,4.232 C145.691996,4.232 146.864996,4.6575 147.708329,5.5085 C148.551662,6.3595 148.973329,7.728 148.973329,9.614 L148.973329,16.008 L145.753329,16.008 L145.477329,14.904 L145.385329,14.904 C144.925329,15.318 144.438496,15.6515 143.924829,15.9045 C143.411162,16.1575 142.839996,16.284 142.211329,16.284 Z M143.591329,13.248 C143.913329,13.248 144.181662,13.1751667 144.396329,13.0295 C144.610996,12.8838333 144.817996,12.696 145.017329,12.466 L145.017329,10.902 C144.081996,11.04 143.434162,11.247 143.073829,11.523 C142.713496,11.799 142.533329,12.098 142.533329,12.42 C142.533329,12.972 142.885996,13.248 143.591329,13.248 Z" id="a"></path><path d="M154.760662,16.284 C153.273329,16.284 152.196162,15.8508333 151.529162,14.9845 C150.862162,14.1181667 150.528662,12.9873333 150.528662,11.592 L150.528662,7.59 L149.010662,7.59 L149.010662,4.646 L150.758662,4.508 L151.218662,1.518 L154.484662,1.518 L154.484662,4.508 L157.106662,4.508 L157.106662,7.59 L154.484662,7.59 L154.484662,11.523 C154.484662,12.1516667 154.622662,12.5886667 154.898662,12.834 C155.174662,13.0793333 155.496662,13.202 155.864662,13.202 C156.048662,13.202 156.228829,13.1828333 156.405162,13.1445 C156.581495,13.1061667 156.738662,13.064 156.876662,13.018 L157.474662,15.87 C157.183329,15.962 156.815329,16.054 156.370662,16.146 C155.925995,16.238 155.389329,16.284 154.760662,16.284 Z" id="t"></path><path d="M162.801995,16.284 C161.820662,16.284 160.896828,16.0463333 160.030495,15.571 C159.164162,15.0956667 158.458828,14.4095 157.914495,13.5125 C157.370162,12.6155 157.097995,11.5306667 157.097995,10.258 C157.097995,8.98533333 157.370162,7.9005 157.914495,7.0035 C158.458828,6.1065 159.164162,5.42033333 160.030495,4.945 C160.896828,4.46966667 161.820662,4.232 162.801995,4.232 C163.783328,4.232 164.707162,4.46966667 165.573495,4.945 C166.439828,5.42033333 167.145162,6.1065 167.689495,7.0035 C168.233828,7.9005 168.505995,8.98533333 168.505995,10.258 C168.505995,11.5306667 168.233828,12.6155 167.689495,13.5125 C167.145162,14.4095 166.439828,15.0956667 165.573495,15.571 C164.707162,16.0463333 163.783328,16.284 162.801995,16.284 Z M162.801995,13.11 C163.399995,13.11 163.825495,12.8531667 164.078495,12.3395 C164.331495,11.8258333 164.457995,11.132 164.457995,10.258 C164.457995,9.384 164.331495,8.69016667 164.078495,8.1765 C163.825495,7.66283333 163.399995,7.406 162.801995,7.406 C162.203995,7.406 161.778495,7.66283333 161.525495,8.1765 C161.272495,8.69016667 161.145995,9.384 161.145995,10.258 C161.145995,11.132 161.272495,11.8258333 161.525495,12.3395 C161.778495,12.8531667 162.203995,13.11 162.801995,13.11 Z" id="o"></path><path d="M169.509328,16.008 L169.509328,4.508 L172.729328,4.508 L173.005328,6.486 L173.097328,6.486 C173.526661,5.704 174.036495,5.13283333 174.626828,4.7725 C175.217161,4.41216667 175.795995,4.232 176.363328,4.232 C176.715995,4.232 177.003495,4.25116667 177.225828,4.2895 C177.448161,4.32783333 177.635995,4.38533333 177.789328,4.462 L177.145328,7.866 C176.945995,7.82 176.746661,7.77783333 176.547328,7.7395 C176.347995,7.70116667 176.117995,7.682 175.857328,7.682 C175.443328,7.682 175.010161,7.82383333 174.557828,8.1075 C174.105495,8.39116667 173.741328,8.89333333 173.465328,9.614 L173.465328,16.008 L169.509328,16.008 Z" id="r"></path></g></g></g><g id="+" transform="translate(101.696000, 13.272000)" fill="#FFFFFF" fill-rule="nonzero"><polygon points="10.656 6.432 10.656 4.824 6.216 4.824 6.216 0 4.44 0 4.44 4.824 0 4.824 0 6.432 4.44 6.432 4.44 11.424 6.216 11.424 6.216 6.432"></polygon></g></g></g></svg> 