<?xml version="1.0" encoding="UTF-8"?> <svg xmlns="http://www.w3.org/2000/svg" id="Layer_1" data-name="Layer 1" viewBox="0 0 100 50"><defs><style>.cls-1{fill:#ee6123;}</style></defs><path class="cls-1" d="M86.17,50.51c-5,0-7.79-3-7.79-6.67,0-1.51.07-12.71.07-12.71-1.64,0-2.45-.86-2.45-1.93a2.12,2.12,0,0,1,2.26-2.08s0-3.74,0-5.29a3.17,3.17,0,0,1,3.14-3.23,3.21,3.21,0,0,1,3.18,3.23c0,1.33-.12,3.17-.11,5.21l3.27,0c1.72,0,2.43.94,2.43,2.15a2,2,0,0,1-2.14,2c-1.12,0-3.6,0-3.6,0-.11,3.57-.22,7.88-.22,11.32a2.67,2.67,0,0,0,2.93,2.67c4.76,0,6.13-4.8,6.13-13.85a2.16,2.16,0,0,1,4.32,0C97.6,43.19,94.6,50.51,86.17,50.51Z" transform="translate(-34.1 -16.76)"></path><path class="cls-1" d="M106.47,31.56a8.22,8.22,0,0,1,3.24-1.39c1.21,0,1,.22,1,1.42,0,12.92-2.34,19-10.7,19-3.64,0-7-2.71-7-6,0-1.29.22-3.87.22-5.16,0-12.49-.19-15.13-.19-18.8a3.36,3.36,0,0,1,3.24-3.34,3.09,3.09,0,0,1,3.08,3.18c0,3.66-.4,9-.51,22.78,0,1.15.55,2,2.05,2C105.57,45.13,106.29,39.22,106.47,31.56Z" transform="translate(-34.1 -16.76)"></path><path class="cls-1" d="M121.63,48.32s-1.76,2.3-6.21,2.19c-5.91-.14-8.64-4.83-8.93-9.66-.22-3.65-.12-6.23-.12-8.6a3,3,0,0,1,2.94-3.2c1.78,0,2.82,1.47,2.82,3.23,0,2.37-.15,4.45-.17,7,0,3.11,1,5.86,3.63,5.85s5.22-1.05,5.29-6.39c0-2.59-.06-4.13-.06-6.5a3,3,0,1,1,6,0c0,2.37-.19,4.72-.19,8.38,0,0-.11,7.39.15,9a6.79,6.79,0,0,0,3.23-3,2.38,2.38,0,0,1,3.07-.9,2.33,2.33,0,0,1,.72,3.11c-1.18,2.61-2.71,4.21-6.57,5.54,0,4.43-.3,11-8.49,12.15-7,1-10.2-3.06-10.21-6.52,0-5.47,5.45-7.06,13.34-9Zm.77,7.08c-4,.86-9,2.11-8.93,4.57.06,2.3,2.43,2.72,4.42,2.31C122,61.43,122.48,59,122.4,55.4Z" transform="translate(-34.1 -16.76)"></path><path class="cls-1" d="M65.53,44.52c0-1.51-.17-13.63-.17-13.63a2.92,2.92,0,1,1,5.8,0c-.21,5.67-.3,9.41-.3,11.39,0,1.14.63,2.9,2.48,2.9,4.27,0,5.16-4,5.16-13.54a2.36,2.36,0,0,1,2.41-2.15,2.14,2.14,0,0,1,2.16,2.15c0,14.48-2.52,18.87-10.7,18.87C69,50.53,65.53,48.43,65.53,44.52Z" transform="translate(-34.1 -16.76)"></path><path class="cls-1" d="M67.46,28.73c-1.17,0-1.25.25-2,1.47,0,5.34-.55,11.18-7.42,14.35,4.61-8.38.12-17.13-6.95-17.13a10.2,10.2,0,0,0-6.82,2.33c0-2.59.09-7.19.09-7.19,0-3.19-1.12-5.74-5-5.8a5,5,0,0,0-5,3.34,1.74,1.74,0,0,0,.51,2.27A1.8,1.8,0,0,0,37,21.79c.33-.42.52-.51.81-.48.48.06.5.83.52,1.32s.39,4.89.18,19c0,3.89,3.07,8.9,10.41,8.9,13.43,0,21.49-6.36,21.49-20.22C70.36,29.18,68.64,28.73,67.46,28.73ZM48.87,45.1c-2.74,0-4.49-1-4.61-3.42a20.14,20.14,0,0,1,0-2.23c.27-3.48,2.46-5.74,4.88-6.22,3-.6,5,.77,5,4.68C54.15,40.56,53.41,45,48.87,45.1Z" transform="translate(-34.1 -16.76)"></path><ellipse class="cls-1" cx="34.17" cy="5.08" rx="3.24" ry="3.22"></ellipse></svg> 